<?xml version="1.0" encoding="utf-8"?>
<!-- Generator: Adobe Illustrator 19.2.1, SVG Export Plug-In . SVG Version: 6.00 Build 0)  -->
<svg version="1.1" id="Слой_1" xmlns="http://www.w3.org/2000/svg" xmlns:xlink="http://www.w3.org/1999/xlink" x="0px" y="0px"
	 viewBox="0 0 82 106.8" style="enable-background:new 0 0 82 106.8;" xml:space="preserve">
<style type="text/css">
	.st0{fill:#FFFFFF;}
	.st1{font-family:'Rubik-Light';}
	.st2{font-size:9.1801px;}
	.st3{font-family:'Rubik-Regular';}
	.st4{font-size:18.6985px;}
</style>
<g>
	<g>
		<g>
			<text transform="matrix(1 0 0 1 2.692 84.2155)"><tspan x="0" y="0" class="st0 st1 st2">Web-development</tspan><tspan x="19" y="9.4" class="st0 st1 st2">&amp; design </tspan><tspan x="25.5" y="18.8" class="st0 st1 st2">studio</tspan></text>
		</g>
		<text transform="matrix(1 0 0 1 9.0006 71.4576)" class="st0 st3 st4">Evolve </text>
	</g>
	<g>
		<g>
			<g>
				<path class="st0" d="M19.1,49c-2.2-1.2-3.7-3.1-4.4-5.6c-0.7-2.6-0.6-5.9,0.3-9.8c0.9-3.8,2.7-8,5-12.2
					c4.8-8.5,11.3-15.6,17.2-18.5c3.9-2,7.7-2.2,10.8-0.4c1.5,0.8,2.8,2,3.9,3.6c3.5,4.8,5.1,11.7,6.1,17.1l0,0
					c0.9,5.2,1.5,10.7,0,14.8c-1.7,4.8-6.1,7-10.6,8.8l0,0C41.2,49.1,34,50.6,28,50.7C24.3,50.8,21.3,50.2,19.1,49z M46.9,4.5
					C44.1,3,41,3.1,37.5,4.9l0,0c-5.4,2.6-11.5,9.3-16,17.3c-4.5,8-6.4,15.5-5.1,20l0,0c0.6,2.1,1.8,3.7,3.7,4.7
					c2,1.1,4.8,1.6,8.3,1.6c5.8-0.1,12.8-1.6,18.7-3.8c5.4-2.1,8-4.2,9.1-7.1c1.3-3.6,0.7-8.6-0.1-13.5c-1-5.3-2.5-11.9-5.8-16.4
					C49.3,6.3,48.2,5.2,46.9,4.5z"/>
			</g>
		</g>
		<g>
			<g>
				<path class="st0" d="M22.3,47.1c-2.5-1.4-3.9-3.4-4.4-6.1c-0.5-2.5-0.1-5.6,1.1-9c1.2-3.3,3.1-6.9,5.6-10.5
					c4.8-6.9,10.9-12.6,15.9-14.9c3.2-1.5,6-1.6,8.2-0.4C49.9,6.9,51,8,51.9,9.4c2.4,3.8,3.6,9.3,4.5,13.7l0,0
					c0.9,4.5,1.7,8.8,0.7,12.5c-1,3.7-3.9,6.6-9.1,9.1c-5.6,2.6-12.3,4.2-18,4.1C26.9,48.8,24.4,48.2,22.3,47.1z M47.6,8.2
					c-1.8-1-4.1-0.9-6.8,0.4c-4.6,2.1-10.4,7.5-14.9,14c-4.7,6.8-7.1,13.3-6.2,17.5l0,0c0.4,2.2,1.6,3.9,3.7,5c1.8,1,4.2,1.5,7,1.6
					c5.4,0.1,11.8-1.4,17.2-3.9c4.5-2.2,7-4.5,7.7-7.3c0.8-3.2,0.1-7.2-0.8-11.5c-0.9-4.3-2.1-9.6-4.3-13.2
					C49.5,9.6,48.6,8.7,47.6,8.2z"/>
			</g>
		</g>
		<g>
			<g>
				<path class="st0" d="M26.3,45.2c-2.1-1.1-3.3-2.9-3.8-5.2c-0.9-4.2,1-10.2,5.3-16.6c3.9-5.9,9-10.8,13.3-12.8
					c2.9-1.4,5.3-1.5,7.4-0.3c1,0.6,1.9,1.4,2.7,2.6c2.2,3.2,3.2,7.8,4,11.8l0,0c0.7,4.1,1.3,7.7,0.3,11c-1,3.2-3.5,5.7-8,7.7
					c-4.7,2.1-10.3,3.3-14.9,3.3C30.1,46.6,27.9,46.1,26.3,45.2z M47.4,12.2c-1.6-0.9-3.6-0.8-6,0.3c-3.9,1.8-8.6,6.4-12.3,11.9
					c-3.8,5.7-5.6,11.2-4.8,14.6l0,0c0.3,1.8,1.4,3.2,3,4.1c1.5,0.8,3.4,1.2,5.7,1.3c4.4,0.1,9.7-1.1,14.2-3.1
					c3.8-1.8,5.8-3.6,6.6-6c0.8-2.7,0.3-6.2-0.4-9.9c-0.8-3.8-1.8-8.2-3.8-11.2C49,13.4,48.2,12.6,47.4,12.2z"/>
			</g>
		</g>
		<g>
			<g>
				<path class="st0" d="M29.9,43.6c-1.8-1-2.8-2.5-3.2-4.4c-0.8-3.5,0.9-8.6,4.4-14c3.3-5,7.6-9.1,11.2-10.7
					c2.4-1.2,4.5-1.2,6.3-0.3c0.9,0.5,1.6,1.2,2.3,2.2c1.8,2.7,2.7,6.5,3.4,9.9l0,0c0.6,3.4,1.1,6.5,0.2,9.2
					c-1.1,3.6-4.4,5.5-6.8,6.6c-3.9,1.8-8.6,2.8-12.5,2.7C33.1,44.8,31.3,44.4,29.9,43.6z M47.5,16.1c-1.3-0.7-2.9-0.6-4.8,0.3
					c-3.2,1.5-7.1,5.3-10.1,9.8c-3.1,4.7-4.6,9.2-4,12l0,0c0.3,1.5,1.1,2.6,2.5,3.3c1.2,0.7,2.8,1,4.7,1.1c3.7,0.1,8-0.9,11.7-2.6
					c3.1-1.4,4.8-3,5.3-4.9c0.7-2.2,0.2-5.1-0.3-8.1c-0.6-3.2-1.5-6.8-3.1-9.2C48.7,17.1,48.1,16.5,47.5,16.1z"/>
			</g>
		</g>
		<g>
			<g>
				<path class="st0" d="M33.9,41.1c-1.4-0.8-2.4-2-2.7-3.5c-0.7-2.7,0.4-6.5,3.1-10.4c2.4-3.6,5.6-6.5,8.4-7.7
					c1.9-0.8,3.6-0.8,5.1,0c0.7,0.4,1.3,1,1.9,1.7c1.5,2.1,2.3,4.9,2.9,7.4l0,0c0.6,2.6,1,4.9,0.4,6.9c-0.8,2.8-3.4,4.2-5.2,4.9
					c-3,1.2-6.6,1.8-9.6,1.7C36.4,42.1,35,41.7,33.9,41.1z M46.4,21.7c-0.9-0.5-2-0.5-3.3,0.1c-2.3,1-5.1,3.5-7.2,6.7
					c-2.2,3.2-3.1,6.2-2.6,8.2l0,0c0.2,1,0.8,1.7,1.8,2.3c0.9,0.5,2,0.8,3.4,0.8c2.7,0.1,6-0.4,8.6-1.5c2.8-1.1,3.4-2.2,3.6-3.1
					c0.4-1.5,0-3.5-0.5-5.6c-0.6-2.3-1.3-4.9-2.6-6.6C47.4,22.4,46.9,22,46.4,21.7z"/>
			</g>
		</g>
	</g>
</g>
</svg>
